<mxfile host="65bd71144e">
    <diagram id="pLaDxi8SeoF6Cp8WVDuV" name="simples">
        <mxGraphModel dx="690" dy="1735" grid="0" gridSize="10" guides="1" tooltips="1" connect="1" arrows="1" fold="1" page="1" pageScale="1" pageWidth="827" pageHeight="1169" math="0" shadow="0">
            <root>
                <mxCell id="tOgMGkE0nMYuGpSJfJC5-0"/>
                <mxCell id="tOgMGkE0nMYuGpSJfJC5-1" parent="tOgMGkE0nMYuGpSJfJC5-0"/>
                <mxCell id="tOgMGkE0nMYuGpSJfJC5-2" value="Veículo" style="rounded=1;whiteSpace=wrap;html=1;arcSize=0;" vertex="1" parent="tOgMGkE0nMYuGpSJfJC5-1">
                    <mxGeometry x="304" y="-415" width="120" height="60" as="geometry"/>
                </mxCell>
                <mxCell id="tOgMGkE0nMYuGpSJfJC5-3" value="Caminhão" style="rounded=1;whiteSpace=wrap;html=1;arcSize=0;" vertex="1" parent="tOgMGkE0nMYuGpSJfJC5-1">
                    <mxGeometry x="504" y="-275" width="120" height="60" as="geometry"/>
                </mxCell>
                <mxCell id="tOgMGkE0nMYuGpSJfJC5-4" value="Moto" style="rounded=1;whiteSpace=wrap;html=1;arcSize=0;" vertex="1" parent="tOgMGkE0nMYuGpSJfJC5-1">
                    <mxGeometry x="104" y="-275" width="120" height="60" as="geometry"/>
                </mxCell>
                <mxCell id="tOgMGkE0nMYuGpSJfJC5-5" value="" style="endArrow=classic;html=1;" edge="1" parent="tOgMGkE0nMYuGpSJfJC5-1">
                    <mxGeometry width="50" height="50" relative="1" as="geometry">
                        <mxPoint x="363.5" y="-315" as="sourcePoint"/>
                        <mxPoint x="363.5" y="-355" as="targetPoint"/>
                    </mxGeometry>
                </mxCell>
                <mxCell id="tOgMGkE0nMYuGpSJfJC5-6" value="" style="endArrow=none;html=1;" edge="1" parent="tOgMGkE0nMYuGpSJfJC5-1">
                    <mxGeometry width="50" height="50" relative="1" as="geometry">
                        <mxPoint x="164" y="-315" as="sourcePoint"/>
                        <mxPoint x="564" y="-315" as="targetPoint"/>
                        <Array as="points"/>
                    </mxGeometry>
                </mxCell>
                <mxCell id="tOgMGkE0nMYuGpSJfJC5-7" value="" style="endArrow=none;html=1;exitX=0.5;exitY=0;exitDx=0;exitDy=0;" edge="1" parent="tOgMGkE0nMYuGpSJfJC5-1">
                    <mxGeometry width="50" height="50" relative="1" as="geometry">
                        <mxPoint x="165" y="-275" as="sourcePoint"/>
                        <mxPoint x="165" y="-315" as="targetPoint"/>
                    </mxGeometry>
                </mxCell>
                <mxCell id="tOgMGkE0nMYuGpSJfJC5-8" value="" style="endArrow=none;html=1;exitX=0.5;exitY=0;exitDx=0;exitDy=0;" edge="1" parent="tOgMGkE0nMYuGpSJfJC5-1">
                    <mxGeometry width="50" height="50" relative="1" as="geometry">
                        <mxPoint x="563.5" y="-275" as="sourcePoint"/>
                        <mxPoint x="563.5" y="-315" as="targetPoint"/>
                    </mxGeometry>
                </mxCell>
                <mxCell id="tOgMGkE0nMYuGpSJfJC5-9" value="&lt;h1&gt;Herença simples&lt;/h1&gt;" style="text;html=1;strokeColor=none;fillColor=none;spacing=5;spacingTop=-20;whiteSpace=wrap;overflow=hidden;rounded=0;labelBackgroundColor=none;fontColor=#FFFFFF;" vertex="1" parent="tOgMGkE0nMYuGpSJfJC5-1">
                    <mxGeometry x="33" y="-453" width="255" height="46" as="geometry"/>
                </mxCell>
                <mxCell id="tOgMGkE0nMYuGpSJfJC5-10" value="Carro" style="rounded=1;whiteSpace=wrap;html=1;arcSize=0;" vertex="1" parent="tOgMGkE0nMYuGpSJfJC5-1">
                    <mxGeometry x="304" y="-275" width="120" height="60" as="geometry"/>
                </mxCell>
                <mxCell id="tOgMGkE0nMYuGpSJfJC5-11" value="" style="endArrow=none;html=1;exitX=0.5;exitY=0;exitDx=0;exitDy=0;" edge="1" parent="tOgMGkE0nMYuGpSJfJC5-1">
                    <mxGeometry width="50" height="50" relative="1" as="geometry">
                        <mxPoint x="365" y="-275" as="sourcePoint"/>
                        <mxPoint x="365" y="-315" as="targetPoint"/>
                    </mxGeometry>
                </mxCell>
            </root>
        </mxGraphModel>
    </diagram>
    <diagram id="BMU7xrLn2mU4bNwUbtf5" name="multipla">
        <mxGraphModel dx="690" dy="566" grid="0" gridSize="10" guides="1" tooltips="1" connect="1" arrows="1" fold="1" page="1" pageScale="1" pageWidth="827" pageHeight="1169" math="0" shadow="0">
            <root>
                <mxCell id="0"/>
                <mxCell id="1" parent="0"/>
                <mxCell id="2" value="Animal" style="rounded=1;whiteSpace=wrap;html=1;arcSize=0;" vertex="1" parent="1">
                    <mxGeometry x="300" y="60" width="120" height="60" as="geometry"/>
                </mxCell>
                <mxCell id="3" value="Ave" style="rounded=1;whiteSpace=wrap;html=1;arcSize=0;" vertex="1" parent="1">
                    <mxGeometry x="500" y="200" width="120" height="60" as="geometry"/>
                </mxCell>
                <mxCell id="4" value="Mamifero" style="rounded=1;whiteSpace=wrap;html=1;arcSize=0;" vertex="1" parent="1">
                    <mxGeometry x="100" y="200" width="120" height="60" as="geometry"/>
                </mxCell>
                <mxCell id="9" value="" style="endArrow=classic;html=1;" edge="1" parent="1">
                    <mxGeometry width="50" height="50" relative="1" as="geometry">
                        <mxPoint x="359.5" y="160" as="sourcePoint"/>
                        <mxPoint x="359.5" y="120" as="targetPoint"/>
                    </mxGeometry>
                </mxCell>
                <mxCell id="12" value="" style="endArrow=none;html=1;" edge="1" parent="1">
                    <mxGeometry width="50" height="50" relative="1" as="geometry">
                        <mxPoint x="160" y="160" as="sourcePoint"/>
                        <mxPoint x="560" y="160" as="targetPoint"/>
                        <Array as="points"/>
                    </mxGeometry>
                </mxCell>
                <mxCell id="13" value="" style="endArrow=none;html=1;" edge="1" parent="1">
                    <mxGeometry width="50" height="50" relative="1" as="geometry">
                        <mxPoint x="90" y="320" as="sourcePoint"/>
                        <mxPoint x="580" y="320" as="targetPoint"/>
                        <Array as="points"/>
                    </mxGeometry>
                </mxCell>
                <mxCell id="14" value="Cachorro" style="rounded=1;whiteSpace=wrap;html=1;arcSize=0;" vertex="1" parent="1">
                    <mxGeometry x="30" y="360" width="120" height="60" as="geometry"/>
                </mxCell>
                <mxCell id="15" value="Gato" style="rounded=1;whiteSpace=wrap;html=1;arcSize=0;" vertex="1" parent="1">
                    <mxGeometry x="164" y="360" width="120" height="60" as="geometry"/>
                </mxCell>
                <mxCell id="16" value="Leão" style="rounded=1;whiteSpace=wrap;html=1;arcSize=0;" vertex="1" parent="1">
                    <mxGeometry x="297" y="360" width="120" height="60" as="geometry"/>
                </mxCell>
                <mxCell id="17" value="&lt;div style=&quot;line-height: 19px&quot;&gt;Ornitorrinco&lt;br&gt;&lt;/div&gt;" style="rounded=1;whiteSpace=wrap;html=1;arcSize=0;" vertex="1" parent="1">
                    <mxGeometry x="520" y="360" width="120" height="60" as="geometry"/>
                </mxCell>
                <mxCell id="19" value="" style="endArrow=classic;html=1;entryX=0.5;entryY=1;entryDx=0;entryDy=0;" edge="1" parent="1" target="4">
                    <mxGeometry width="50" height="50" relative="1" as="geometry">
                        <mxPoint x="160" y="320" as="sourcePoint"/>
                        <mxPoint x="380" y="270" as="targetPoint"/>
                    </mxGeometry>
                </mxCell>
                <mxCell id="20" value="" style="endArrow=classic;html=1;" edge="1" parent="1">
                    <mxGeometry width="50" height="50" relative="1" as="geometry">
                        <mxPoint x="559.5" y="320" as="sourcePoint"/>
                        <mxPoint x="559.5" y="260" as="targetPoint"/>
                    </mxGeometry>
                </mxCell>
                <mxCell id="21" value="" style="endArrow=none;html=1;exitX=0.5;exitY=0;exitDx=0;exitDy=0;" edge="1" parent="1" source="14">
                    <mxGeometry width="50" height="50" relative="1" as="geometry">
                        <mxPoint x="46" y="370" as="sourcePoint"/>
                        <mxPoint x="90" y="320" as="targetPoint"/>
                    </mxGeometry>
                </mxCell>
                <mxCell id="24" value="" style="endArrow=none;html=1;" edge="1" parent="1">
                    <mxGeometry width="50" height="50" relative="1" as="geometry">
                        <mxPoint x="580" y="360" as="sourcePoint"/>
                        <mxPoint x="580" y="320" as="targetPoint"/>
                    </mxGeometry>
                </mxCell>
                <mxCell id="25" value="" style="endArrow=none;html=1;exitX=0.5;exitY=0;exitDx=0;exitDy=0;" edge="1" parent="1">
                    <mxGeometry width="50" height="50" relative="1" as="geometry">
                        <mxPoint x="161" y="200" as="sourcePoint"/>
                        <mxPoint x="161" y="160" as="targetPoint"/>
                    </mxGeometry>
                </mxCell>
                <mxCell id="26" value="" style="endArrow=none;html=1;exitX=0.5;exitY=0;exitDx=0;exitDy=0;" edge="1" parent="1">
                    <mxGeometry width="50" height="50" relative="1" as="geometry">
                        <mxPoint x="559.5" y="200" as="sourcePoint"/>
                        <mxPoint x="559.5" y="160" as="targetPoint"/>
                    </mxGeometry>
                </mxCell>
                <mxCell id="27" value="" style="endArrow=none;html=1;exitX=0.5;exitY=0;exitDx=0;exitDy=0;" edge="1" parent="1">
                    <mxGeometry width="50" height="50" relative="1" as="geometry">
                        <mxPoint x="230" y="360" as="sourcePoint"/>
                        <mxPoint x="230" y="320" as="targetPoint"/>
                    </mxGeometry>
                </mxCell>
                <mxCell id="28" value="" style="endArrow=none;html=1;exitX=0.5;exitY=0;exitDx=0;exitDy=0;" edge="1" parent="1">
                    <mxGeometry width="50" height="50" relative="1" as="geometry">
                        <mxPoint x="359.5" y="360" as="sourcePoint"/>
                        <mxPoint x="359.5" y="320" as="targetPoint"/>
                    </mxGeometry>
                </mxCell>
                <mxCell id="31" value="&lt;h1&gt;Herença multipla&lt;/h1&gt;" style="text;html=1;strokeColor=none;fillColor=none;spacing=5;spacingTop=-20;whiteSpace=wrap;overflow=hidden;rounded=0;labelBackgroundColor=none;fontColor=#FFFFFF;" vertex="1" parent="1">
                    <mxGeometry x="29" y="22" width="255" height="46" as="geometry"/>
                </mxCell>
            </root>
        </mxGraphModel>
    </diagram>
</mxfile>